<?xml version="1.0" standalone="no"?>
<!DOCTYPE svg PUBLIC "-//W3C//DTD SVG 20010904//EN"
 "http://www.w3.org/TR/2001/REC-SVG-20010904/DTD/svg10.dtd">
<svg version="1.0" xmlns="http://www.w3.org/2000/svg"
 width="512.000000pt" height="512.000000pt" viewBox="0 0 512.000000 512.000000"
 preserveAspectRatio="xMidYMid meet">
<metadata>
Created by potrace 1.13, written by Peter Selinger 2001-2015
</metadata>
<g transform="translate(0.000000,512.000000) scale(0.100000,-0.100000)"
fill="#000000" stroke="none">
<path d="M1465 4782 c-67 -32 -117 -83 -149 -151 -20 -44 -21 -61 -21 -406 0
-345 1 -362 21 -406 32 -68 82 -119 149 -151 l60 -28 433 0 432 0 0 -765 0
-765 -405 0 -405 0 0 293 0 292 40 23 c137 78 131 291 -9 361 -77 39 -151 34
-220 -13 -129 -90 -112 -284 31 -357 l38 -20 -2 -287 -3 -287 -35 -3 c-64 -5
-80 -12 -100 -45 -18 -28 -20 -51 -20 -190 0 -167 8 -205 49 -227 13 -6 195
-10 515 -10 l496 0 0 -274 0 -273 -67 -7 c-106 -11 -257 -44 -377 -83 -105
-34 -373 -160 -395 -186 -11 -13 190 -13 1399 2 l575 7 -135 66 c-184 90 -359
147 -540 178 -36 6 -75 13 -88 15 l-22 5 2 273 3 272 468 5 469 5 24 28 c23
27 24 32 24 205 l0 176 -27 28 c-20 21 -36 28 -65 28 l-38 0 0 298 0 297 40
23 c137 78 131 291 -9 361 -77 39 -151 34 -220 -13 -129 -90 -112 -284 31
-357 l38 -20 -2 -292 -3 -292 -377 -3 -378 -2 0 764 0 765 413 3 c400 3 413 4
452 25 51 27 111 87 138 138 21 39 22 50 22 420 0 377 0 380 -23 423 -33 62
-96 118 -158 142 -54 20 -72 20 -1032 20 l-977 0 -60 -28z"/>
<path d="M1462 720 c-109 -26 -182 -149 -153 -258 34 -125 186 -190 302 -129
145 77 145 293 0 366 -45 23 -106 32 -149 21z"/>
<path d="M3452 720 c-109 -26 -182 -149 -153 -258 34 -125 186 -190 302 -129
145 77 145 293 0 366 -45 23 -106 32 -149 21z"/>
</g>
</svg>
