<?xml version="1.0" standalone="no"?>
<!DOCTYPE svg PUBLIC "-//W3C//DTD SVG 20010904//EN"
 "http://www.w3.org/TR/2001/REC-SVG-20010904/DTD/svg10.dtd">
<svg version="1.0" xmlns="http://www.w3.org/2000/svg"
 width="512.000000pt" height="512.000000pt" viewBox="0 0 512.000000 512.000000"
 preserveAspectRatio="xMidYMid meet">
<metadata>
Created by potrace 1.13, written by Peter Selinger 2001-2015
</metadata>
<g transform="translate(0.000000,512.000000) scale(0.100000,-0.100000)"
fill="#000000" stroke="none">
<path d="M965 4800 l-460 -5 -53 -29 c-92 -51 -142 -125 -142 -208 l0 -28
1674 0 1675 0 78 -62 c165 -132 360 -345 492 -538 351 -512 478 -1141 355
-1760 -79 -398 -263 -791 -522 -1115 -88 -110 -268 -294 -379 -387 l-83 -70
-92 45 c-100 49 -224 91 -316 106 -31 6 -189 16 -349 22 -337 14 -793 1 -948
-27 -107 -19 -150 -19 -179 -1 -29 19 -115 47 -143 47 -27 0 -31 -25 -8 -57
28 -40 11 -66 -67 -104 -80 -39 -152 -102 -174 -155 -8 -19 -18 -64 -21 -100
l-6 -64 1208 0 1208 0 -6 62 c-4 35 -9 74 -13 88 -5 23 6 35 108 117 224 180
457 443 606 688 186 306 318 686 363 1050 16 128 16 462 0 585 -93 726 -448
1316 -1065 1770 -54 40 -121 83 -148 97 l-48 24 -913 9 c-501 5 -970 8 -1042
7 -71 -1 -337 -4 -590 -7z"/>
<path d="M450 4478 l0 -25 1067 -6 c586 -4 1279 -7 1540 -7 l473 0 0 25 0 25
-473 0 c-261 0 -954 3 -1540 7 l-1067 6 0 -25z"/>
<path d="M1283 3569 c-107 -156 -205 -397 -257 -631 l-6 -28 71 0 c63 0 78 4
118 29 74 47 157 65 311 65 111 1 141 -2 170 -17 31 -16 43 -17 128 -6 l94 13
-7 145 c-3 80 -11 196 -16 256 -13 154 -12 185 5 185 9 0 16 -16 20 -47 20
-168 53 -688 66 -1053 13 -372 14 -342 -12 -338 l-23 3 -12 335 c-6 184 -12
373 -12 420 -1 47 -5 80 -9 73 -4 -6 -45 -19 -92 -27 -52 -10 -92 -24 -105
-36 -73 -69 -369 -102 -482 -55 -30 13 -57 14 -130 9 -51 -4 -93 -7 -93 -8
-16 -83 -32 -301 -37 -493 l-6 -253 1256 0 1256 0 -30 68 c-17 37 -80 176
-140 310 -60 133 -129 282 -153 331 -52 103 -161 268 -241 364 -143 173 -387
309 -665 371 -170 39 -277 48 -606 53 l-331 6 -30 -44z"/>
</g>
</svg>
