<?xml version="1.0" standalone="no"?>
<!DOCTYPE svg PUBLIC "-//W3C//DTD SVG 20010904//EN"
 "http://www.w3.org/TR/2001/REC-SVG-20010904/DTD/svg10.dtd">
<svg version="1.0" xmlns="http://www.w3.org/2000/svg"
 width="512.000000pt" height="512.000000pt" viewBox="0 0 512.000000 512.000000"
 preserveAspectRatio="xMidYMid meet">
<metadata>
Created by potrace 1.13, written by Peter Selinger 2001-2015
</metadata>
<g transform="translate(0.000000,512.000000) scale(0.100000,-0.100000)"
fill="#000000" stroke="none">
<path d="M1811 3612 l-1495 -1187 942 -3 942 -2 1265 1185 c696 652 1265 1188
1265 1190 0 3 -321 5 -712 5 l-713 0 -1494 -1188z"/>
<path d="M3477 3580 l-1267 -1190 -950 0 -950 0 0 -75 0 -75 540 0 540 0 0
-185 0 -185 -40 0 -40 0 0 -685 0 -685 -264 0 c-166 0 -267 -4 -271 -10 -3 -6
-3 -52 1 -103 l6 -92 796 3 c455 1 800 6 805 11 5 5 6 49 2 100 l-7 91 -259 0
-259 0 0 685 0 685 -35 0 -35 0 0 185 0 185 228 0 227 1 580 546 c319 300 678
637 798 750 l217 204 0 -35 c0 -33 -2 -36 -30 -36 l-30 0 0 -555 0 -555 -217
-2 -218 -3 2 -79 c1 -43 3 -79 5 -81 2 -2 294 0 651 3 l647 5 0 78 0 79 -210
0 -210 0 0 554 0 555 -42 3 -43 3 -3 174 -2 174 49 46 c27 25 165 154 305 286
l256 240 0 88 c0 48 -1 87 -3 87 -2 0 -573 -535 -1270 -1190z"/>
</g>
</svg>
